<mxfile host="app.diagrams.net" modified="2022-01-10T05:51:21.438Z" agent="5.0 (Macintosh; Intel Mac OS X 10_15_7) AppleWebKit/537.36 (KHTML, like Gecko) Chrome/96.0.4664.110 Safari/537.36" etag="CxNCqg9TTebV_hVK7kzW" version="16.1.0" type="github">
  <diagram id="dbqqi3C47ijJKA_Fh1tV" name="第 1 页">
    <mxGraphModel dx="1042" dy="-622" grid="1" gridSize="10" guides="1" tooltips="1" connect="1" arrows="1" fold="1" page="1" pageScale="1" pageWidth="827" pageHeight="1169" background="#ffffff" math="0" shadow="0">
      <root>
        <mxCell id="0" />
        <mxCell id="1" parent="0" />
        <mxCell id="89kvmyf3B6sa9Tdo-k7o-1" style="rounded=0;orthogonalLoop=1;jettySize=auto;html=1;exitX=0;exitY=1;exitDx=0;exitDy=0;entryX=0.5;entryY=0;entryDx=0;entryDy=0;endArrow=none;endFill=0;sketch=0;" edge="1" parent="1" source="89kvmyf3B6sa9Tdo-k7o-3" target="89kvmyf3B6sa9Tdo-k7o-4">
          <mxGeometry relative="1" as="geometry" />
        </mxCell>
        <mxCell id="89kvmyf3B6sa9Tdo-k7o-2" style="edgeStyle=none;rounded=0;orthogonalLoop=1;jettySize=auto;html=1;exitX=1;exitY=1;exitDx=0;exitDy=0;entryX=0.5;entryY=0;entryDx=0;entryDy=0;endArrow=none;endFill=0;sketch=0;" edge="1" parent="1" source="89kvmyf3B6sa9Tdo-k7o-3" target="89kvmyf3B6sa9Tdo-k7o-7">
          <mxGeometry relative="1" as="geometry" />
        </mxCell>
        <mxCell id="89kvmyf3B6sa9Tdo-k7o-3" value="&lt;font face=&quot;Comic Sans MS&quot;&gt;3&lt;/font&gt;" style="ellipse;whiteSpace=wrap;html=1;fillColor=#f8cecc;strokeColor=#b85450;shadow=1;sketch=0;" vertex="1" parent="1">
          <mxGeometry x="350" y="1310" width="40" height="40" as="geometry" />
        </mxCell>
        <mxCell id="89kvmyf3B6sa9Tdo-k7o-4" value="&lt;font face=&quot;Comic Sans MS&quot;&gt;9&lt;/font&gt;" style="ellipse;whiteSpace=wrap;html=1;fillColor=#f5f5f5;strokeColor=#666666;shadow=1;fontColor=#333333;sketch=0;" vertex="1" parent="1">
          <mxGeometry x="310" y="1390" width="40" height="40" as="geometry" />
        </mxCell>
        <mxCell id="89kvmyf3B6sa9Tdo-k7o-5" style="edgeStyle=none;rounded=0;orthogonalLoop=1;jettySize=auto;html=1;exitX=0;exitY=1;exitDx=0;exitDy=0;entryX=0.5;entryY=0;entryDx=0;entryDy=0;endArrow=none;endFill=0;sketch=0;" edge="1" parent="1" source="89kvmyf3B6sa9Tdo-k7o-7" target="89kvmyf3B6sa9Tdo-k7o-8">
          <mxGeometry relative="1" as="geometry" />
        </mxCell>
        <mxCell id="89kvmyf3B6sa9Tdo-k7o-6" style="edgeStyle=none;rounded=0;orthogonalLoop=1;jettySize=auto;html=1;exitX=1;exitY=1;exitDx=0;exitDy=0;entryX=0.5;entryY=0;entryDx=0;entryDy=0;endArrow=none;endFill=0;sketch=0;" edge="1" parent="1" source="89kvmyf3B6sa9Tdo-k7o-7" target="89kvmyf3B6sa9Tdo-k7o-9">
          <mxGeometry relative="1" as="geometry" />
        </mxCell>
        <mxCell id="89kvmyf3B6sa9Tdo-k7o-7" value="&lt;font face=&quot;Comic Sans MS&quot;&gt;20&lt;/font&gt;" style="ellipse;whiteSpace=wrap;html=1;fillColor=#f8cecc;strokeColor=#b85450;shadow=1;sketch=0;" vertex="1" parent="1">
          <mxGeometry x="390" y="1390" width="40" height="40" as="geometry" />
        </mxCell>
        <mxCell id="89kvmyf3B6sa9Tdo-k7o-8" value="&lt;font face=&quot;Comic Sans MS&quot;&gt;15&lt;/font&gt;" style="ellipse;whiteSpace=wrap;html=1;fillColor=#f5f5f5;strokeColor=#666666;shadow=1;fontColor=#333333;sketch=0;" vertex="1" parent="1">
          <mxGeometry x="350" y="1470" width="40" height="40" as="geometry" />
        </mxCell>
        <mxCell id="89kvmyf3B6sa9Tdo-k7o-9" value="&lt;font face=&quot;Comic Sans MS&quot;&gt;7&lt;/font&gt;" style="ellipse;whiteSpace=wrap;html=1;shadow=1;fillColor=#f8cecc;strokeColor=#b85450;sketch=0;" vertex="1" parent="1">
          <mxGeometry x="430" y="1470" width="40" height="40" as="geometry" />
        </mxCell>
        <mxCell id="89kvmyf3B6sa9Tdo-k7o-10" value="sum=3" style="text;html=1;strokeColor=none;fillColor=none;align=center;verticalAlign=middle;whiteSpace=wrap;rounded=0;" vertex="1" parent="1">
          <mxGeometry x="300" y="1310" width="40" height="39" as="geometry" />
        </mxCell>
        <mxCell id="89kvmyf3B6sa9Tdo-k7o-12" value="sum=sum+7=30" style="text;html=1;strokeColor=none;fillColor=none;align=center;verticalAlign=middle;whiteSpace=wrap;rounded=0;" vertex="1" parent="1">
          <mxGeometry x="480" y="1470" width="110" height="40" as="geometry" />
        </mxCell>
        <mxCell id="89kvmyf3B6sa9Tdo-k7o-13" value="sum=sum+20=23" style="text;html=1;strokeColor=none;fillColor=none;align=center;verticalAlign=middle;whiteSpace=wrap;rounded=0;" vertex="1" parent="1">
          <mxGeometry x="450" y="1391" width="110" height="40" as="geometry" />
        </mxCell>
        <mxCell id="89kvmyf3B6sa9Tdo-k7o-15" value="" style="rounded=0;whiteSpace=wrap;html=1;" vertex="1" parent="1">
          <mxGeometry x="600" y="1390" width="40" height="40" as="geometry" />
        </mxCell>
        <mxCell id="89kvmyf3B6sa9Tdo-k7o-16" value="&lt;font face=&quot;Comic Sans MS&quot;&gt;3&lt;/font&gt;" style="ellipse;whiteSpace=wrap;html=1;fillColor=#f8cecc;strokeColor=#b85450;shadow=1;sketch=0;" vertex="1" parent="1">
          <mxGeometry x="600" y="1390" width="40" height="40" as="geometry" />
        </mxCell>
        <mxCell id="89kvmyf3B6sa9Tdo-k7o-17" value="" style="rounded=0;whiteSpace=wrap;html=1;" vertex="1" parent="1">
          <mxGeometry x="600" y="1430" width="40" height="40" as="geometry" />
        </mxCell>
        <mxCell id="89kvmyf3B6sa9Tdo-k7o-19" value="" style="rounded=0;whiteSpace=wrap;html=1;" vertex="1" parent="1">
          <mxGeometry x="600" y="1470" width="40" height="40" as="geometry" />
        </mxCell>
        <mxCell id="89kvmyf3B6sa9Tdo-k7o-21" value="&lt;font face=&quot;Comic Sans MS&quot;&gt;20&lt;/font&gt;" style="ellipse;whiteSpace=wrap;html=1;fillColor=#f8cecc;strokeColor=#b85450;shadow=1;sketch=0;" vertex="1" parent="1">
          <mxGeometry x="600" y="1430" width="40" height="40" as="geometry" />
        </mxCell>
        <mxCell id="89kvmyf3B6sa9Tdo-k7o-22" value="&lt;font face=&quot;Comic Sans MS&quot;&gt;7&lt;/font&gt;" style="ellipse;whiteSpace=wrap;html=1;shadow=1;fillColor=#f8cecc;strokeColor=#b85450;sketch=0;" vertex="1" parent="1">
          <mxGeometry x="600" y="1470" width="40" height="40" as="geometry" />
        </mxCell>
        <mxCell id="89kvmyf3B6sa9Tdo-k7o-23" value="record" style="text;html=1;strokeColor=none;fillColor=none;align=center;verticalAlign=middle;whiteSpace=wrap;rounded=0;" vertex="1" parent="1">
          <mxGeometry x="590" y="1360" width="60" height="30" as="geometry" />
        </mxCell>
      </root>
    </mxGraphModel>
  </diagram>
</mxfile>
